Coordinates
version=1
nRows=12
nColumns=24
inDegrees=yes

Units are S.I. units (second, meters, Newtons, ...)
Angles are in degrees.

endheader
time	pelvis_tilt	pelvis_list	pelvis_rotation	pelvis_tx	pelvis_ty	pelvis_tz	hip_flexion_r	hip_adduction_r	hip_rotation_r	knee_angle_r	ankle_angle_r	subtalar_angle_r	mtp_angle_r	hip_flexion_l	hip_adduction_l	hip_rotation_l	knee_angle_l	ankle_angle_l	subtalar_angle_l	mtp_angle_l	lumbar_extension	lumbar_bending	lumbar_rotation
      0.68800000	     -5.03404644	      7.46832725	     11.58202660	     -0.01708859	      0.96678799	      0.28296312	     37.66145334	    -13.33304087	     -7.21464049	     -6.50922082	      6.26438036	    -12.46510746	    -14.22670586	    -15.34521504	      6.06686645	     -1.01008408	     -4.98685856	     11.24770589	     -0.01251392	      7.81694912	     -7.09278342	     -7.31313271	     -7.13577410
      0.69216667	     -5.06589169	      7.44702033	     11.71470675	     -0.01108375	      0.96591862	      0.28336688	     37.57652843	    -13.33529620	     -7.24114408	     -7.19996481	      6.22889854	    -12.57643817	    -14.22081473	    -15.56862387	      5.88393734	     -0.99321244	     -5.16306931	     11.10734287	      0.10884382	      7.82975235	     -7.02529518	     -7.26045069	     -7.14829440
      0.69633333	     -4.99114973	      7.36461028	     11.87166644	     -0.00502026	      0.96529973	      0.28372938	     37.31544553	    -13.28325441	     -7.37317537	     -7.79938618	      6.11874442	    -12.67576229	    -14.17010662	    -15.86711293	      5.59823433	     -1.05503944	     -5.38885215	     11.03473867	      0.42776651	      7.93567221	     -7.07316699	     -7.07350272	     -7.29142924
      0.70050000	     -5.02596903	      7.34018173	     11.99575623	      0.00108390	      0.96449574	      0.28414904	     37.19910468	    -13.27218706	     -7.43396841	     -8.42589885	      5.99431822	    -12.80136437	    -14.15941119	    -16.08568501	      5.41232920	     -1.03626273	     -5.56295804	     10.82273388	      0.53311002	      7.96136363	     -6.98797183	     -7.00747201	     -7.28934777
      0.70466667	     -4.94513542	      7.21044342	     12.16042519	      0.00728136	      0.96399692	      0.28448407	     36.87217569	    -13.17048886	     -7.63789246	     -8.90010608	      5.70383536	    -13.03584442	    -14.09309485	    -16.38620862	      5.07371543	     -1.06123273	     -5.77477851	     10.68818981	      0.76617310	      8.10933311	     -7.00912018	     -6.77116711	     -7.40138223
      0.70883333	     -4.87796712	      7.10761787	     12.28322104	      0.01350675	      0.96348661	      0.28489325	     36.57260943	    -13.06614278	     -7.80687816	     -9.36116635	      5.40051637	    -13.25346278	    -14.00634684	    -16.68307874	      4.77797315	     -1.09128719	     -5.96517382	     10.43989657	      0.89539260	      8.29508880	     -7.02339695	     -6.57600790	     -7.45109972
      0.71300000	     -4.85746411	      7.00466795	     12.40869295	      0.01975687	      0.96294459	      0.28531114	     36.31666726	    -12.96601945	     -7.98622278	     -9.78301804	      5.03394046	    -13.49674142	    -13.92049386	    -16.91381847	      4.49154886	     -1.11753171	     -6.18774615	     10.17657331	      1.01203112	      8.48064619	     -6.98097583	     -6.39129133	     -7.48643792
      0.71716667	     -4.83166371	      6.88376140	     12.52214828	      0.02604870	      0.96247278	      0.28574564	     36.03824528	    -12.83672293	     -8.18042167	    -10.13422361	      4.57446400	    -13.79424102	    -13.82928903	    -17.13826008	      4.18938447	     -1.15315406	     -6.41983133	      9.87061296	      1.09624680	      8.68012222	     -6.93654470	     -6.18391314	     -7.52100641
      0.72133333	     -4.65141495	      6.73014443	     12.59485029	      0.03235102	      0.96230719	      0.28627335	     35.56867508	    -12.62656649	     -8.40368900	    -10.38214612	      3.99720476	    -14.13052275	    -13.58421382	    -17.50418728	      3.81761945	     -1.28490070	     -6.65969964	      9.54029602	      1.30184232	      9.18918945	     -7.08206365	     -5.89814761	     -7.59727314
      0.72550000	     -4.73665902	      6.60001903	     12.69184680	      0.03871582	      0.96176780	      0.28668894	     35.41417849	    -12.49573037	     -8.61284004	    -10.65821204	      3.39151685	    -14.47313100	    -13.51183574	    -17.58957204	      3.54738052	     -1.28402491	     -6.92707562	      9.14304700	      1.22568293	      9.35560441	     -6.88610498	     -5.71004977	     -7.53557294
      0.72966667	     -4.55787019	      6.40466868	     12.71657387	      0.04507935	      0.96172096	      0.28731841	     34.93636320	    -12.20589829	     -8.82094932	    -10.77226505	      2.55722260	    -14.99254527	    -13.23619912	    -17.91479734	      3.14642538	     -1.46917614	     -7.21394728	      8.76258033	      1.39338740	      9.93858335	     -7.00830994	     -5.37816779	     -7.58533147
      0.73383333	     -4.51205057	      6.22842648	     12.74534933	      0.05145368	      0.96152548	      0.28791015	     34.62500019	    -11.95900340	     -9.01248802	    -10.89254544	      1.66190742	    -15.53040388	    -12.90751464	    -18.08772374	      2.80830746	     -1.57784123	     -7.53318376	      8.31318399	      1.38080144	     10.63698484	     -6.97214328	     -5.10644361	     -7.52411508
